<svg version="1.2" xmlns="http://www.w3.org/2000/svg" viewBox="0 0 15 17" width="15" height="17"><style>.a{fill:#d1d1d1}</style><path fill-rule="evenodd" class="a" d="m13.8 5.4c1.3 0 1.2 1.6 1.2 1.6v8.6c0 1.3-1.2 1.4-1.2 1.4h-12.6c-1.6 0-1.2-1.4-1.2-1.4v-9.1c0-1.3 1.3-1 1.3-1h0.6c0-3.2 2.5-5.5 5.5-5.5 3 0 5.6 2.3 5.6 5.5zm-1.9 0c0-2.5-2-4.2-4.3-4.2-2.4 0-4.3 1.7-4.3 4.2zm-6.6 4c0 0.9 0.6 1.7 1.3 2 0.2 0.1-0.6 3.5-0.6 3.5h2.6c0 0-0.7-3.5-0.6-3.5 0.7-0.3 1.2-1.1 1.2-2 0-1.1-0.9-2-1.9-2-1.1 0-2 0.9-2 2z"/></svg>