<svg version="1.2" xmlns="http://www.w3.org/2000/svg" viewBox="0 0 15 15" width="15" height="15"><style>.a{fill:#d1d1d1}</style><path class="a" d="m7.9 0c0.6 0 0.9 0.7 1.2 0.8 0.3 0 0.3-0.1 0.9 0 0.9 0.2 0.8 1.3 0.8 1.7 0.1 0.4 0.1 1.5 0 1.8-0.1 0.4 0.2 0.3 0.2 0.3 0.5 0 0.4 1.6 0.4 1.6-0.1 0.4-0.4 0.4-0.9 0.8-0.4 1-1.2 1.6-1.2 1.6 0 0 0 0.7 0 0.9 0 0.1-0.3 1.3 1.9 1.6 2.3 0.3 2.8 1.1 3.3 1.5 0.4 0.4 0.5 2.4 0.5 2.4h-15c0 0 0-2 0.4-2.4 0.5-0.4 0.9-1.2 3.2-1.5 2.4-0.3 2-1.5 2.1-1.5 0-0.5 0-1.1 0-1.1 0 0-0.9-0.5-1.3-1.5-0.7-0.3-0.6-0.5-0.7-0.9 0 0-0.2-1.5 0.3-1.5 0 0 0.2 0 0.2-0.3-0.1-0.6-0.1-1.7 0-2.1 0-0.4 0.3-1.5 1.2-1.7 0.8-0.1 0.5 0 0.7 0 0.3 0 0.2-0.3 0.8-0.3z"/></svg>